<?xml version="1.0" encoding="UTF-8"?>
<svg width="74px" height="74px" viewBox="0 0 74 74" version="1.1" xmlns="http://www.w3.org/2000/svg" xmlns:xlink="http://www.w3.org/1999/xlink">
    <title>DApp/icons/web_FB_nor</title>
    <defs>
        <radialGradient cx="16.75%" cy="99.9972466%" fx="16.75%" fy="99.9972466%" r="110%" id="radialGradient-1">
            <stop stop-color="#0099FF" offset="0%"></stop>
            <stop stop-color="#A033FF" offset="60%"></stop>
            <stop stop-color="#FF5280" offset="90%"></stop>
            <stop stop-color="#FF7061" offset="100%"></stop>
        </radialGradient>
    </defs>
    <g id="DApp/icons/FB_nor" stroke="none" stroke-width="1" fill="none" fill-rule="evenodd">
        <path d="M37,17 C25.735,17 17,25.2547727 17,36.3994658 C17,42.2293053 19.39,47.2691666 23.28,50.7490707 C23.605,51.0390628 23.805,51.4490515 23.815,51.8890393 L23.925,55.4489413 C23.9412648,55.9808323 24.2209193,56.469829 24.6711117,56.7535727 C25.1213041,57.0373164 25.6831114,57.0786697 26.17,56.8639024 L30.14,55.1139506 C30.475,54.9639547 30.855,54.9389554 31.21,55.0339528 C33.035,55.533939 34.975,55.8039316 37,55.8039316 C48.265,55.8039316 57,47.5491588 57,36.4044657 C57,25.2597726 48.265,17 37,17 Z" id="路径" fill="url(#radialGradient-1)" fill-rule="nonzero"></path>
        <path d="M24.99,42.0743096 L30.865,32.7545662 C31.3118196,32.0451766 32.0351096,31.5551221 32.8596157,31.4031436 C33.6841218,31.2511651 34.5346079,31.4511306 35.205,31.9545882 L39.88,35.4594917 C40.308797,35.7805122 40.8984348,35.778472 41.325,35.4544919 L47.635,30.6646238 C48.475,30.0246414 49.575,31.0346136 49.015,31.9295889 L43.135,41.2443324 C42.6881804,41.953722 41.9648904,42.4437765 41.1403843,42.595755 C40.3158782,42.7477336 39.4653921,42.547768 38.795,42.0443104 L34.12,38.5394069 C33.691203,38.2183864 33.1015652,38.2204266 32.675,38.5444068 L26.365,43.3342749 C25.525,43.9742573 24.425,42.9692849 24.99,42.0743096 L24.99,42.0743096 Z" id="路径" fill="#FFFFFF" fill-rule="nonzero"></path>
    </g>
</svg>